<svg xmlns="http://www.w3.org/2000/svg" viewBox="0 0 35 35"><defs><style>.cls-1{fill:#187747;}.cls-2{fill:#fbfbfb;fill-opacity:0.97;}.cls-3,.cls-4{font-size:10.01px;fill:#086c3e;font-family:MyriadPro-Bold, Myriad Pro;font-weight:700;}.cls-3,.cls-5{letter-spacing:-0.02em;}.cls-4{letter-spacing:-0.02em;}</style></defs><g id="Layer_2" data-name="Layer 2"><g id="Layer_1-2" data-name="Layer 1"><rect class="cls-1" width="35" height="35" rx="10"/><path class="cls-2" d="M30.89,10.48c-.41-3-3.11-5.3-6.3-5.76a54,54,0,0,0-7.31-.35h0A32.8,32.8,0,0,0,11,4.72a7.74,7.74,0,0,0-6.63,5.55A18.38,18.38,0,0,0,4,14.89c.09,2.16.11,4.31.31,6.46a29.16,29.16,0,0,0,.74,4.24c.65,2.57,3.3,4.71,5.89,5.59a16.43,16.43,0,0,0,8.63.43q.46-.11.93-.24a7.52,7.52,0,0,0,2.11-.87,0,0,0,0,0,0,0,0,0,0,0,0,0,0V28.37s0,0,0,0,0,0,0,0h-.05a25,25,0,0,1-5.6.63c-3.24,0-4.11-1.48-4.36-2.09a6.28,6.28,0,0,1-.38-1.65v0s0,0,0,0h0a0,0,0,0,1,0,0,24.8,24.8,0,0,0,5.5.62h1.34a37,37,0,0,0,5.66-.48l.13,0c2.9-.53,5.65-2.21,5.93-6.45,0-.17,0-1.75,0-1.92A59,59,0,0,0,30.89,10.48Z"/><text class="cls-3" transform="translate(11.74 13.86) scale(1.07 1)">NE</text><text class="cls-4" transform="translate(8 22.5) scale(1.07 1)">O<tspan class="cls-5" x="6.97" y="0">ne</tspan></text></g></g></svg>