<svg id="Layer_1" data-name="Layer 1" xmlns="http://www.w3.org/2000/svg" viewBox="0 0 164.81 35"><defs><style>.cls-1,.cls-3{fill:#187747;}.cls-2{fill:#fbfbfb;fill-opacity:0.97;}.cls-3{font-size:18.93px;}.cls-18,.cls-3,.cls-7{font-family:MyriadPro-Bold, Myriad Pro;font-weight:700;}.cls-4{letter-spacing:0em;}.cls-5{letter-spacing:0.02em;}.cls-6{letter-spacing:0em;}.cls-7{font-size:7.94px;fill:#016838;}.cls-8{letter-spacing:0em;}.cls-9{letter-spacing:0em;}.cls-10{letter-spacing:0.02em;}.cls-11{letter-spacing:-0.01em;}.cls-12{letter-spacing:0em;}.cls-13{letter-spacing:0em;}.cls-14{letter-spacing:-0.03em;}.cls-15{letter-spacing:-0.02em;}.cls-16{letter-spacing:0em;}.cls-17{letter-spacing:-0.02em;}.cls-18{font-size:8.29px;fill:#086c3e;letter-spacing:-0.02em;}.cls-19{letter-spacing:-0.02em;}.cls-20{letter-spacing:-0.02em;}</style></defs><rect class="cls-1" width="35" height="35" rx="10"/><path class="cls-2" d="M265.87,36.48c-.48-3-3.61-5.3-7.33-5.76a72.92,72.92,0,0,0-8.5-.35h0a44.16,44.16,0,0,0-7.31.35c-3.61.44-6.91,2.55-7.71,5.55a15.64,15.64,0,0,0-.36,4.62c.1,2.16.12,4.31.36,6.46a25.91,25.91,0,0,0,.86,4.24c.76,2.57,3.84,4.71,6.85,5.59a22.11,22.11,0,0,0,10,.43q.54-.11,1.08-.24a9.51,9.51,0,0,0,2.45-.87l0,0V54.35l0,0h-.06a33.8,33.8,0,0,1-6.51.63c-3.78,0-4.79-1.48-5.08-2.09a5.38,5.38,0,0,1-.44-1.65v0l0,0h.07a33.3,33.3,0,0,0,6.4.62h1.56a50,50,0,0,0,6.59-.48l.15,0c3.36-.53,6.57-2.21,6.89-6.45,0-.17.05-1.75.05-1.92A50.54,50.54,0,0,0,265.87,36.48Z" transform="translate(-233 -26)"/><text class="cls-3" transform="translate(41.43 20.72)"><tspan class="cls-4">N</tspan><tspan x="13.01" y="0">o</tspan><tspan class="cls-5" x="23.93" y="0">r</tspan><tspan x="31.52" y="0">thEast </tspan><tspan class="cls-6" x="88.65" y="0">O</tspan><tspan x="102.3" y="0">ne</tspan></text><text class="cls-7" transform="translate(43.19 29.44)"><tspan class="cls-8">O</tspan><tspan x="5.72" y="0">ne </tspan><tspan class="cls-9" x="16.17" y="0">N</tspan><tspan x="21.62" y="0">o</tspan><tspan class="cls-10" x="26.2" y="0">r</tspan><tspan x="29.38" y="0">thEas</tspan><tspan class="cls-11" x="48.81" y="0">t</tspan><tspan class="cls-12" x="51.66" y="0">. </tspan><tspan class="cls-13" x="55.33" y="0">O</tspan><tspan x="61.05" y="0">ne </tspan><tspan class="cls-14" x="71.49" y="0">F</tspan><tspan x="75.47" y="0">edi</tspan><tspan class="cls-15" x="86.56" y="0">v</tspan><tspan class="cls-16" x="90.65" y="0">ers</tspan><tspan class="cls-17" x="101.3" y="0">e</tspan><tspan x="105.36" y="0">.</tspan></text><text class="cls-18" transform="translate(3.59 18.67) scale(1.07 1)">NE <tspan class="cls-19" x="11.23" y="0">O</tspan><tspan class="cls-20" x="17" y="0">ne</tspan></text></svg>