<?xml version="1.0" encoding="utf-8"?>
<!-- Generator: Adobe Illustrator 24.1.2, SVG Export Plug-In . SVG Version: 6.00 Build 0)  -->
<svg version="1.1" id="Layer_1" xmlns="http://www.w3.org/2000/svg" xmlns:xlink="http://www.w3.org/1999/xlink" x="0px" y="0px"
	 viewBox="0 0 261 66" style="enable-background:new 0 0 261 66;" xml:space="preserve">
<style type="text/css">
	.st0{clip-path:url(#SVGID_2_);fill:#006837;}
	.st1{clip-path:url(#SVGID_2_);fill:#016838;fill-opacity:0.97;stroke:#000000;stroke-width:0.5;stroke-miterlimit:10;}
	.st2{clip-path:url(#SVGID_2_);}
	.st3{fill:#187747;}
	.st4{font-family:'MyriadPro-Bold';}
	.st5{font-size:28.625px;}
	.st6{fill:#016838;}
	.st7{font-size:12px;}
	.st8{fill:#FFFFFF;}
</style>
<g>
	<defs>
		<path id="SVGID_1_" d="M33,0h195c18.2,0,33,14.8,33,33v0c0,18.2-14.8,33-33,33H33C14.8,66,0,51.2,0,33v0C0,14.8,14.8,0,33,0z"/>
	</defs>
	<clipPath id="SVGID_2_">
		<use xlink:href="#SVGID_1_"  style="overflow:visible;"/>
	</clipPath>
	<path id="square_1_" class="st0" d="M0,27.4l0,11.6"/>
	<path class="st1" d="M64.9,15.9C64,9.2,58.2,4,51.3,3c-1.2-0.2-5.6-0.8-15.8-0.8h-0.1C25.3,2.2,23.1,2.8,21.9,3
		C15.2,4,9.1,8.7,7.6,15.4c-0.7,3.3-0.8,6.9-0.7,10.3c0.2,4.8,0.2,9.6,0.7,14.4c0.3,3.2,0.8,6.3,1.6,9.4C10.6,55.2,16.3,60,21.9,62
		c6,2,12.4,2.4,18.6,1c0.7-0.2,1.4-0.3,2-0.5c1.5-0.5,3.3-1,4.6-1.9c0,0,0,0,0,0c0,0,0,0,0-0.1v-4.6c0,0,0,0,0-0.1c0,0,0,0,0,0
		c0,0,0,0-0.1,0c0,0,0,0-0.1,0c-4,0.9-8,1.4-12.1,1.4c-7,0-8.9-3.3-9.4-4.7c-0.4-1.2-0.7-2.4-0.8-3.7c0,0,0,0,0-0.1c0,0,0,0,0,0
		c0,0,0,0,0.1,0c0,0,0,0,0.1,0c3.9,0.9,7.9,1.4,11.9,1.4c1,0,1.9,0,2.9,0c4-0.1,8.3-0.3,12.2-1.1c0.1,0,0.2,0,0.3-0.1
		c6.2-1.2,12.2-4.9,12.8-14.4c0-0.4,0.1-3.9,0.1-4.3C65,28.8,65.4,20.8,64.9,15.9z"/>
	<g class="st2">
		<text transform="matrix(1 0 0 1 70.5547 31.9141)" class="st3 st4 st5">NorthEast One</text>
	</g>
	<g class="st2">
		<text transform="matrix(1 0 0 1 73.2224 45.1113)" class="st6 st4 st7">One NorthEast, One Fediverse.</text>
	</g>
</g>
<path class="st8" d="M16.6,20.2c0,2,1.6,3.7,3.7,3.7s3.7-1.6,3.7-3.7s-1.6-3.7-3.7-3.7S16.6,18.2,16.6,20.2z"/>
<path class="st8" d="M40.8,31.4c-0.3,0.4-0.4,0.8-0.2,1.3c0.2,0.4,0.6,0.7,1.1,0.7H49v3.4c0,0.5,0.2,0.9,0.5,1.2
	c0.3,0.3,0.7,0.5,1.2,0.5c0.5,0,0.9-0.2,1.2-0.5c0.3-0.3,0.5-0.7,0.5-1.2v-3.4h7.2c0.5,0,0.9-0.3,1.1-0.7c0.2-0.5,0.1-0.9-0.2-1.3
	l-4.2-4.8h1.6c0.5,0,0.9-0.3,1.1-0.7c0.2-0.5,0.1-0.9-0.2-1.3l-4.2-4.8h1.5c0.5,0,0.9-0.3,1.1-0.7c0.2-0.5,0.1-0.9-0.2-1.3l-5.8-6.2
	c-0.4-0.4-0.8-0.4-1.3,0l-5.8,6.2c-0.3,0.4-0.4,0.8-0.2,1.3c0.2,0.5,0.6,0.7,1.1,0.7h1.5l-4.2,4.8c-0.3,0.4-0.3,0.8-0.2,1.3
	c0.2,0.5,0.6,0.7,1.1,0.7h1.6L40.8,31.4z"/>
<path class="st8" d="M27.1,32.7c0.2,0.4,0.6,0.7,1.1,0.7h7.2v3.4c0,0.5,0.2,0.9,0.5,1.2c0.3,0.3,0.7,0.5,1.2,0.5
	c0.5,0,0.9-0.2,1.2-0.5c0.3-0.3,0.5-0.7,0.5-1.2v-5.1c0-0.5,0.2-1,0.6-1.3c0-0.1,0.1-0.1,0.1-0.2l2.2-2.5c-0.4-0.3-0.7-0.7-1-1.1
	c-0.5-1.1-0.3-2.2,0.4-3.1l2.2-2.5c-0.4-0.3-0.8-0.7-1-1.2c-0.4-1-0.2-1.9,0.4-2.8l-5-5.3c-0.4-0.4-0.8-0.4-1.3,0l-5.8,6.2
	c-0.3,0.4-0.4,0.8-0.2,1.3c0.2,0.5,0.6,0.7,1.1,0.7h1.5l-4.2,4.8c-0.3,0.4-0.3,0.8-0.2,1.3c0.2,0.5,0.6,0.7,1.1,0.7h1.6l-4.2,4.8
	C27,31.8,26.9,32.2,27.1,32.7z"/>
</svg>
