<svg id="Layer_1" data-name="Layer 1" xmlns="http://www.w3.org/2000/svg" xmlns:xlink="http://www.w3.org/1999/xlink" viewBox="0 0 1544 384"><defs><style>.cls-1{fill:url(#purple_2);}.cls-2{fill:#fbfbfb;fill-opacity:0.97;}.cls-3{font-size:83.88px;fill:#086c3e;}.cls-3,.cls-5,.cls-9{font-family:MyriadPro-Bold, Myriad Pro;font-weight:700;}.cls-4{letter-spacing:0em;}.cls-5{font-size:160.04px;fill:#187747;}.cls-6{letter-spacing:0em;}.cls-7{letter-spacing:0.02em;}.cls-8{letter-spacing:0em;}.cls-9{font-size:67.09px;fill:#016838;}.cls-10{letter-spacing:0em;}.cls-11{letter-spacing:0em;}.cls-12{letter-spacing:0.02em;}.cls-13{letter-spacing:-0.01em;}.cls-14{letter-spacing:0em;}.cls-15{letter-spacing:0em;}.cls-16{letter-spacing:-0.03em;}.cls-17{letter-spacing:-0.01em;}.cls-18{letter-spacing:-0.02em;}</style><linearGradient id="purple_2" y1="192" x2="410" y2="192" gradientUnits="userSpaceOnUse"><stop offset="0.08" stop-color="#086c3e"/><stop offset="0.52" stop-color="#068e43"/></linearGradient></defs><rect class="cls-1" width="410" height="384" rx="90"/><path class="cls-2" d="M464.72,144.14c-4.9-32.1-36.63-57.4-74.25-62.3C384.12,81,360.08,78,304.38,78H304c-55.71,0-67.67,3-74,3.84-36.57,4.77-70,27.5-78.07,60-3.9,16-4.31,33.73-3.59,50,1,23.33,1.23,46.62,3.64,69.85a293.66,293.66,0,0,0,8.67,45.82c7.7,27.83,38.88,51,69.43,60.45a210.12,210.12,0,0,0,101.57,4.72q5.55-1.14,11-2.65c8.18-2.29,17.77-4.86,24.83-9.36a1,1,0,0,0,.23-.24.69.69,0,0,0,.09-.31V337.58a.6.6,0,0,0-.08-.29.63.63,0,0,0-.21-.22.67.67,0,0,0-.3-.13.91.91,0,0,0-.33,0,317.15,317.15,0,0,1-65.92,6.79c-38.2,0-48.47-16-51.41-22.64A62.91,62.91,0,0,1,245,303.25a.54.54,0,0,1,.06-.3.79.79,0,0,1,.21-.24.85.85,0,0,1,.31-.13.78.78,0,0,1,.34,0,312.3,312.3,0,0,0,64.84,6.79c5.25,0,10.49,0,15.74-.13,22-.54,45.12-1.53,66.73-5.25.54-.1,1.08-.18,1.54-.3,34.09-5.77,66.53-23.88,69.82-69.75.13-1.81.44-18.92.44-20.79C465.07,206.79,467.38,168,464.72,144.14Z" transform="translate(-101 -32)"/><text class="cls-3" transform="translate(59.83 205.62) scale(1.07 1)">NE <tspan class="cls-4" x="119.62" y="0">O</tspan><tspan x="180.1" y="0">ne</tspan></text><text class="cls-5" transform="translate(500.85 198.64)"><tspan class="cls-6">N</tspan><tspan x="109.95" y="0">o</tspan><tspan class="cls-7" x="202.29" y="0">r</tspan><tspan x="266.47" y="0">thEast </tspan><tspan class="cls-8" x="749.47" y="0">O</tspan><tspan x="864.86" y="0">ne</tspan></text><text class="cls-9" transform="translate(515.77 272.42)"><tspan class="cls-10">O</tspan><tspan x="48.37" y="0">ne </tspan><tspan class="cls-11" x="136.67" y="0">N</tspan><tspan x="182.76" y="0">o</tspan><tspan class="cls-12" x="221.47" y="0">r</tspan><tspan x="248.37" y="0">thEas</tspan><tspan class="cls-13" x="412.68" y="0">t</tspan><tspan x="436.77" y="0">. </tspan><tspan class="cls-14" x="467.76" y="0">O</tspan><tspan class="cls-15" x="516.13" y="0">ne </tspan><tspan class="cls-16" x="604.43" y="0">F</tspan><tspan x="638.04" y="0">edi</tspan><tspan class="cls-17" x="731.83" y="0">v</tspan><tspan x="766.39" y="0">ers</tspan><tspan class="cls-18" x="856.42" y="0">e</tspan><tspan x="890.77" y="0">.</tspan></text></svg>