<?xml version="1.0" encoding="utf-8"?>
<!-- Generator: Adobe Illustrator 24.1.2, SVG Export Plug-In . SVG Version: 6.00 Build 0)  -->
<svg version="1.1" id="Layer_1" xmlns="http://www.w3.org/2000/svg" xmlns:xlink="http://www.w3.org/1999/xlink" x="0px" y="0px"
	 viewBox="0 0 65 65" style="enable-background:new 0 0 65 65;" xml:space="preserve">
<style type="text/css">
	.st0{fill:#086C3E;}
	.st1{fill:#FFFFFF;}
</style>
<path class="st0" d="M62.8,14.4c-0.9-7-7-12.5-14.2-13.6C47.3,0.7,42.7,0,32,0h-0.1c-10.7,0-13,0.7-14.2,0.8c-7,1-13.4,6-15,13
	C2,17.4,1.9,21.2,2.1,24.8C2.3,29.8,2.3,34.9,2.8,40c0.3,3.4,0.9,6.7,1.7,10C5.9,56,11.9,61,17.7,63.1c6.3,2.1,13,2.5,19.5,1
	c0.7-0.2,1.4-0.4,2.1-0.6c1.6-0.5,3.4-1.1,4.8-2c0,0,0,0,0-0.1c0,0,0,0,0-0.1v-4.9c0,0,0,0,0-0.1c0,0,0,0,0,0c0,0,0,0-0.1,0
	c0,0,0,0-0.1,0c-4.1,1-8.4,1.5-12.6,1.5c-7.3,0-9.3-3.5-9.9-4.9c-0.5-1.3-0.7-2.6-0.9-3.9c0,0,0,0,0-0.1c0,0,0,0,0-0.1
	c0,0,0,0,0.1,0c0,0,0,0,0.1,0c4.1,1,8.2,1.5,12.4,1.5c1,0,2,0,3,0c4.2-0.1,8.7-0.3,12.8-1.1c0.1,0,0.2,0,0.3-0.1
	c6.5-1.3,12.8-5.2,13.4-15.2c0-0.4,0.1-4.1,0.1-4.5C62.8,28,63.3,19.6,62.8,14.4z"/>
<g>
	<path class="st1" d="M13.7,29v-8.3h2.2c1,1.9,2.9,5.2,3.3,6.1h0c-0.1-0.9-0.1-2.3-0.1-3.7v-2.5h1.6V29h-2.1c-0.9-1.6-3-5.5-3.4-6.4
		h0c0.1,0.7,0.1,2.4,0.1,3.9V29H13.7z"/>
	<path class="st1" d="M28.4,25.4h-4v2.1h4.4L28.6,29h-5.9v-8.3h5.9v1.5h-4.1v1.8h4V25.4z"/>
	<path class="st1" d="M40.7,24.8c0,2.3-1.4,4.3-4.1,4.3c-2.6,0-4-1.9-4-4.3c0-2.4,1.5-4.3,4.1-4.3C39.2,20.6,40.7,22.3,40.7,24.8z
		 M34.5,24.8c0,1.6,0.7,2.8,2.2,2.8c1.6,0,2.2-1.3,2.2-2.8c0-1.6-0.6-2.8-2.2-2.8C35.2,22,34.5,23.2,34.5,24.8z"/>
	<path class="st1" d="M42,24.3c0-0.5,0-1.1,0-1.6h1.7c0,0.2,0.1,0.6,0.1,0.8c0.2-0.4,0.7-0.9,1.8-0.9c1.2,0,2.1,0.8,2.1,2.4V29h-1.7
		v-3.8c0-0.7-0.2-1.2-1-1.2c-0.7,0-1.1,0.4-1.1,1.5V29H42V24.3z"/>
	<path class="st1" d="M50.5,26.2c0,0.8,0.4,1.5,1.2,1.5c0.7,0,0.9-0.3,1.1-0.7h1.7c-0.2,0.8-0.9,2-2.8,2c-2,0-2.9-1.5-2.9-3.2
		c0-1.9,1-3.3,3-3.3c2.1,0,2.9,1.5,2.9,3.1c0,0.2,0,0.3,0,0.5H50.5z M52.9,25.2c0-0.7-0.3-1.3-1.1-1.3c-0.8,0-1.2,0.6-1.2,1.3H52.9z
		"/>
</g>
</svg>
